<?xml version="1.0" standalone="no"?>
<!DOCTYPE svg PUBLIC "-//W3C//DTD SVG 20010904//EN"
 "http://www.w3.org/TR/2001/REC-SVG-20010904/DTD/svg10.dtd">
<svg version="1.0" xmlns="http://www.w3.org/2000/svg"
 width="360.000000pt" height="360.000000pt" viewBox="0 0 360.000000 360.000000"
 preserveAspectRatio="xMidYMid meet">
<metadata>
Created by potrace 1.14, written by Peter Selinger 2001-2017
</metadata>
<g transform="translate(0.000000,360.000000) scale(0.100000,-0.100000)"
fill="#000000" stroke="none">
<path d="M1620 3589 c-440 -42 -879 -268 -1171 -603 -223 -255 -374 -576 -426
-905 -22 -144 -23 -421 0 -556 100 -601 462 -1087 1002 -1345 494 -237 1054
-237 1550 0 544 259 919 771 1006 1370 19 130 17 399 -4 525 -84 508 -360 940
-777 1218 -349 232 -763 336 -1180 296z m95 -779 c4 -6 -10 -10 -35 -10 -25 0
-39 4 -35 10 3 6 19 10 35 10 16 0 32 -4 35 -10z m230 0 c-3 -5 -13 -10 -21
-10 -8 0 -12 5 -9 10 3 6 13 10 21 10 8 0 12 -4 9 -10z m-450 -20 c19 -8 19
-9 -2 -9 -12 -1 -25 4 -28 9 -7 12 2 12 30 0z m95 0 c-8 -5 -24 -9 -35 -9 -16
1 -16 2 5 9 35 11 48 11 30 0z m480 0 c-8 -5 -24 -9 -35 -9 -16 1 -16 2 5 9
35 11 48 11 30 0z m91 -7 c13 -17 13 -17 -6 -3 -11 8 -22 16 -24 17 -2 2 0 3
6 3 6 0 17 -8 24 -17z m-731 -3 c0 -5 -5 -10 -11 -10 -5 0 -7 5 -4 10 3 6 8
10 11 10 2 0 4 -4 4 -10z m615 -15 c80 -22 199 -72 257 -108 26 -15 52 -26 57
-23 5 4 26 -3 47 -14 34 -20 65 -19 34 0 -8 6 -10 10 -4 10 6 0 17 -7 24 -15
9 -10 9 -15 1 -15 -6 0 -11 -5 -11 -11 0 -6 7 -9 14 -6 10 4 13 1 10 -8 -4
-10 -18 -5 -55 22 -28 19 -52 33 -55 30 -3 -2 17 -21 43 -40 162 -120 299
-328 359 -547 26 -93 26 -387 0 -480 -61 -223 -195 -423 -376 -562 -19 -15
-30 -27 -23 -28 15 0 163 119 170 137 5 12 7 12 14 1 12 -18 11 -30 -2 -23 -5
4 -19 -1 -30 -11 -15 -13 -17 -19 -7 -26 8 -5 4 -7 -12 -6 -18 2 -25 -2 -24
-14 1 -10 -4 -14 -12 -11 -8 3 -14 0 -14 -6 0 -6 5 -11 11 -11 5 0 7 -5 3 -11
-5 -8 -9 -8 -14 1 -5 8 -17 5 -43 -10 -20 -12 -41 -19 -47 -15 -6 4 -32 -7
-58 -22 -59 -37 -178 -86 -262 -109 -93 -26 -387 -26 -479 -1 -89 25 -200 71
-258 106 -36 22 -58 28 -88 26 -22 -1 -34 -1 -27 2 10 4 8 9 -5 19 -25 19 -36
17 -28 -3 4 -13 3 -15 -5 -7 -6 6 -8 18 -4 27 5 14 11 13 46 -9 57 -36 58 -23
1 19 -162 120 -299 328 -359 547 -26 93 -26 387 0 480 60 219 197 427 359 547
56 41 55 58 -1 20 -36 -24 -39 -24 -50 -7 -9 14 -8 19 3 24 9 3 12 0 8 -10 -7
-18 6 -18 30 0 13 10 15 15 5 19 -7 3 5 3 27 2 30 -2 52 4 86 25 88 53 226
101 359 124 58 10 327 -3 385 -19z m72 19 c-3 -3 -12 -4 -19 -1 -8 3 -5 6 6 6
11 1 17 -2 13 -5z m28 -23 c-2 -5 -17 -6 -32 -3 l-28 6 25 6 c27 7 43 3 35 -9z
m-675 0 c0 -5 -6 -11 -13 -14 -8 -3 -14 1 -14 9 0 8 6 14 14 14 7 0 13 -4 13
-9z m37 3 c-3 -3 -12 -4 -19 -1 -8 3 -5 6 6 6 11 1 17 -2 13 -5z m-104 -29
c-3 -9 -8 -14 -10 -11 -3 3 -2 9 2 15 9 16 15 13 8 -4z m812 5 c4 -6 -6 -7
-27 -3 -44 8 -48 13 -10 13 17 0 34 -4 37 -10z m-905 -35 c0 -2 -6 -5 -13 -8
-8 -3 -14 1 -14 8 0 7 6 11 14 8 7 -3 13 -6 13 -8z m60 8 c0 -1 -15 -10 -32
-18 -26 -12 -29 -13 -15 -1 13 10 15 15 5 19 -7 2 -1 4 14 3 16 0 28 -2 28 -3z
m894 -5 c-7 -10 -1 -10 29 1 21 8 24 7 23 -12 -1 -16 6 -23 22 -25 12 -2 22
-8 22 -13 0 -14 -12 -11 -43 10 -21 13 -25 20 -15 25 7 3 1 4 -13 1 -14 -2
-34 1 -43 8 -16 12 -16 13 3 13 11 0 17 -4 15 -8z m-964 -32 c0 -2 -13 -9 -30
-15 -35 -12 -41 -5 -7 9 25 10 37 12 37 6z m-194 -124 c7 -4 -1 -18 -22 -38
-24 -21 -35 -27 -38 -17 -3 7 1 13 8 13 7 0 21 9 30 19 13 15 14 20 4 24 -7 3
-8 6 -3 6 6 0 15 -3 21 -7z m1409 -2 c-9 -14 15 -42 30 -36 8 3 12 -4 11 -18
-1 -20 -3 -20 -36 14 -21 21 -31 38 -25 42 15 11 27 10 20 -2z m-1450 -10 c3
-5 1 -10 -4 -10 -6 0 -11 5 -11 10 0 6 2 10 4 10 3 0 8 -4 11 -10z m1485 0 c0
-5 -4 -10 -10 -10 -5 0 -10 5 -10 10 0 6 5 10 10 10 6 0 10 -4 10 -10z m-1553
-129 c-32 -49 -34 -50 -33 -22 1 16 4 27 8 25 3 -2 16 10 28 26 37 52 34 25
-3 -29z m1643 35 c0 -3 -4 -8 -10 -11 -5 -3 -10 -1 -10 4 0 6 5 11 10 11 6 0
10 -2 10 -4z m-30 -16 c0 -5 -4 -10 -10 -10 -5 0 -10 5 -10 10 0 6 5 10 10 10
6 0 10 -4 10 -10z m23 -16 c-7 -3 -9 -13 -6 -22 5 -13 3 -14 -7 -5 -14 13 -5
33 13 32 9 0 9 -2 0 -5z m-1685 -61 c-27 -56 -32 -63 -41 -51 -6 9 -7 6 -4
-10 6 -27 -8 -21 -16 7 -4 15 0 19 15 16 13 -3 22 4 28 20 5 14 12 25 15 25 4
0 5 -3 3 -7z m1723 -3 c1 -5 2 -16 3 -22 1 -7 7 -12 14 -11 6 2 9 -4 6 -12 -4
-8 -8 -15 -10 -15 -4 0 -34 56 -34 65 0 9 20 5 21 -5z m39 -97 c-9 -15 -10
-14 -4 6 4 16 3 21 -5 17 -7 -5 -8 -1 -4 10 5 15 7 15 15 0 6 -10 5 -23 -2
-33z m35 -54 c11 -17 -1 -21 -15 -4 -8 9 -8 15 -2 15 6 0 14 -5 17 -11z
m-1888 -41 c-3 -7 -5 -2 -5 12 0 14 2 19 5 13 2 -7 2 -19 0 -25z m-40 -31 c1
-29 1 -30 -8 -9 -5 13 -7 28 -3 33 8 14 9 12 11 -24z m22 -20 c-5 -16 -11 -32
-15 -36 -4 -3 -4 2 -1 12 4 10 7 33 7 50 0 22 3 28 9 18 5 -8 5 -27 0 -44z
m1944 -22 c13 -11 20 -65 9 -65 -11 0 -39 113 -33 130 3 8 7 -1 9 -20 2 -19 8
-39 15 -45z m12 35 c0 -15 -3 -26 -7 -24 -4 2 -6 18 -6 34 1 38 13 29 13 -10z
m-1975 -80 c0 -11 -4 -20 -9 -20 -5 0 -7 9 -4 20 3 11 7 20 9 20 2 0 4 -9 4
-20z m-33 -262 c-2 -13 -4 -3 -4 22 0 25 2 35 4 23 2 -13 2 -33 0 -45z m2030
0 c-2 -13 -4 -3 -4 22 0 25 2 35 4 23 2 -13 2 -33 0 -45z m-1997 -218 c0 -11
-2 -20 -4 -20 -2 0 -6 9 -9 20 -3 11 -1 20 4 20 5 0 9 -9 9 -20z m1961 -32
c-6 -17 -11 -45 -11 -62 -1 -23 -3 -27 -10 -16 -5 10 -3 36 8 73 9 31 19 52
20 47 2 -6 -1 -25 -7 -42z m-1942 -35 c5 -17 5 -36 0 -44 -6 -10 -9 -4 -9 18
0 17 -3 40 -7 50 -3 10 -3 15 1 12 4 -4 10 -20 15 -36z m1956 -12 c0 -16 -3
-32 -6 -36 -7 -7 -9 46 -2 58 7 12 8 9 8 -22z m-1978 -10 c-1 -17 -5 -27 -9
-23 -7 7 0 52 8 52 2 0 2 -13 1 -29z m40 -58 c-3 -10 -5 -4 -5 12 0 17 2 24 5
18 2 -7 2 -21 0 -30z m1884 -16 c-10 -9 -11 -8 -5 6 3 10 9 15 12 12 3 -3 0
-11 -7 -18z m-27 -53 c3 -8 2 -12 -4 -9 -13 8 -13 -1 0 -25 7 -13 6 -19 -3
-23 -8 -3 -12 5 -11 24 3 54 7 62 18 33z m-1818 -32 c-17 -16 -18 -16 -5 5 7
12 15 20 18 17 3 -2 -3 -12 -13 -22z m46 -49 c3 -13 2 -23 -2 -23 -5 0 -10 10
-12 23 -2 15 -9 21 -22 19 -15 -3 -16 -1 -5 11 16 17 32 5 41 -30z m1731 7
c-3 -11 -10 -23 -16 -27 -5 -3 -8 -2 -5 3 3 5 8 17 11 27 9 24 16 22 10 -3z
m-57 -85 c-15 -25 -31 -45 -36 -45 -6 0 4 22 22 49 41 61 50 58 14 -4z m-1626
14 c0 -6 -4 -7 -10 -4 -5 3 -10 11 -10 16 0 6 5 7 10 4 6 -3 10 -11 10 -16z
m20 -29 c0 -5 -4 -10 -10 -10 -5 0 -10 5 -10 10 0 6 5 10 10 10 6 0 10 -4 10
-10z m-30 -10 c0 -5 -5 -10 -11 -10 -5 0 -7 5 -4 10 3 6 8 10 11 10 2 0 4 -4
4 -10z m135 -105 c17 -15 23 -22 14 -16 -9 6 -25 9 -35 5 -13 -4 -15 -3 -6 3
10 7 8 13 -7 27 -11 10 -24 15 -29 12 -6 -3 -9 5 -8 19 l1 24 20 -24 c11 -13
34 -36 50 -50z m-45 11 c0 -3 -4 -8 -10 -11 -5 -3 -10 -1 -10 4 0 6 5 11 10
11 6 0 10 -2 10 -4z m1480 -6 c0 -5 -4 -10 -10 -10 -5 0 -10 5 -10 10 0 6 5
10 10 10 6 0 10 -4 10 -10z m-1240 -140 c33 -17 60 -31 60 -33 0 -1 -12 -3
-27 -4 -14 0 -21 2 -14 6 12 8 -48 41 -74 41 -8 0 -15 5 -15 10 0 14 4 13 70
-20z m1046 21 c-6 -9 -46 -22 -46 -15 0 3 10 9 23 14 29 11 29 11 23 1z
m-1046 -46 c0 -2 -6 -5 -13 -8 -8 -3 -14 1 -14 8 0 7 6 11 14 8 7 -3 13 -6 13
-8z m980 5 c16 -10 13 -12 -33 -14 -26 -2 -27 -1 -11 11 21 15 24 16 44 3z
m-886 -36 c5 -14 4 -15 -9 -4 -17 14 -19 20 -6 20 5 0 12 -7 15 -16z m773 -10
c-3 -3 -12 -4 -19 -1 -8 3 -5 6 6 6 11 1 17 -2 13 -5z m-682 -13 c16 -6 14 -9
-15 -15 -27 -5 -32 -9 -20 -16 10 -7 11 -10 2 -10 -19 0 -27 31 -11 41 16 10
18 10 44 0z m622 -7 c-3 -3 -12 -4 -19 -1 -8 3 -5 6 6 6 11 1 17 -2 13 -5z
m-687 -14 c0 -5 -2 -10 -4 -10 -3 0 -8 5 -11 10 -3 6 -1 10 4 10 6 0 11 -4 11
-10z m157 -8 c6 -4 -6 -7 -27 -7 -21 0 -33 3 -27 7 7 4 19 8 27 8 8 0 20 -4
27 -8z m472 4 c-2 -2 -17 -6 -34 -10 -22 -5 -26 -4 -15 4 14 9 59 15 49 6z
m95 -8 c-6 -9 -64 -5 -64 4 0 5 15 7 34 5 19 -1 32 -5 30 -9z m-214 -12 c0 -8
-51 -13 -56 -5 -3 5 9 9 25 9 17 0 31 -2 31 -4z"/>
<path d="M1598 2725 c-161 -36 -329 -129 -453 -250 -94 -92 -116 -121 -173
-225 -84 -154 -112 -266 -112 -450 0 -71 7 -155 15 -194 61 -290 261 -537 541
-668 35 -16 75 -31 88 -32 13 0 22 -4 20 -7 -10 -17 132 -34 276 -34 144 0
286 17 276 34 -2 3 7 7 20 7 33 2 140 54 225 109 72 47 194 161 241 225 72
100 138 248 163 366 19 89 19 299 0 388 -61 290 -261 537 -541 668 -35 16 -75
31 -88 32 -14 0 -22 3 -20 6 3 2 -16 11 -43 18 -73 21 -352 25 -435 7z m381
-13 c4 -7 15 -10 24 -6 10 3 28 -1 42 -10 13 -9 32 -16 40 -16 19 0 148 -50
155 -60 3 -4 16 -13 29 -20 19 -10 21 -14 10 -22 -10 -6 -7 -7 10 -3 16 5 21
4 17 -4 -5 -7 -1 -8 10 -4 13 5 15 3 9 -7 -5 -9 -4 -11 4 -6 6 4 19 2 27 -5
12 -10 12 -14 2 -22 -10 -7 -9 -8 3 -4 21 7 62 -21 53 -35 -4 -6 -2 -8 3 -5 6
4 35 -20 64 -52 69 -75 77 -85 91 -116 6 -14 16 -25 21 -25 5 0 7 -9 4 -20 -3
-12 -1 -18 5 -14 6 4 8 -2 3 -17 -5 -18 -4 -20 4 -9 12 17 12 17 35 -37 10
-23 15 -47 11 -54 -5 -7 -4 -10 3 -5 12 7 26 -29 17 -44 -3 -5 -2 -10 3 -10
11 0 33 -70 26 -82 -3 -5 0 -16 8 -25 10 -12 13 -57 13 -173 0 -116 -3 -161
-13 -173 -8 -9 -11 -20 -8 -25 6 -10 -24 -108 -55 -185 -28 -65 -28 -65 -40
-47 -8 11 -9 9 -4 -9 5 -17 4 -22 -5 -16 -8 5 -11 4 -6 -3 14 -22 -31 -86
-135 -194 -58 -60 -80 -77 -95 -72 -13 4 -15 3 -6 -3 16 -12 10 -16 -63 -58
-27 -16 -52 -31 -55 -35 -7 -10 -136 -60 -155 -60 -8 0 -27 -7 -40 -16 -14 -9
-32 -13 -42 -10 -9 4 -20 1 -24 -6 -12 -18 -329 -19 -351 0 -9 7 -23 10 -31 6
-9 -3 -29 1 -44 9 -15 9 -49 21 -75 27 -28 7 -45 17 -41 23 3 5 1 7 -5 3 -12
-7 -59 11 -80 31 -7 7 -20 13 -28 13 -17 0 -19 16 -1 24 6 3 1 3 -12 0 -17 -5
-21 -3 -16 6 5 8 4 11 -3 7 -5 -4 -17 -4 -26 -1 -12 5 -14 10 -6 19 9 11 7 12
-9 8 -16 -4 -40 14 -103 79 -46 46 -88 91 -93 99 -31 43 -54 92 -49 101 5 7 2
8 -6 3 -9 -6 -10 -1 -5 16 5 18 4 20 -4 9 -12 -18 -12 -19 -45 62 -16 36 -25
71 -22 77 4 6 3 11 -2 11 -11 0 -33 70 -26 82 3 5 0 16 -8 25 -19 23 -19 323
0 346 8 9 11 21 8 26 -4 6 1 27 10 48 10 21 16 42 15 47 -4 18 11 46 21 40 7
-5 8 -2 3 5 -4 7 1 31 11 54 23 54 23 54 35 37 8 -11 9 -9 4 9 -5 17 -4 22 5
16 9 -5 11 -4 6 3 -4 7 -4 17 0 24 5 8 10 6 14 -7 6 -18 7 -17 12 3 4 12 2 20
-3 16 -17 -10 -9 21 14 50 48 63 160 175 190 190 18 9 28 16 22 16 -5 0 15 14
45 32 30 17 57 34 60 38 7 10 135 60 153 60 9 0 30 8 47 18 26 13 33 14 37 4
4 -11 8 -10 22 1 24 23 53 26 209 23 100 -2 146 -6 151 -14z"/>
<path d="M1727 2709 c7 -7 15 -10 18 -7 3 3 -2 9 -12 12 -14 6 -15 5 -6 -5z"/>
<path d="M1700 2690 c0 -5 5 -10 11 -10 5 0 7 5 4 10 -3 6 -8 10 -11 10 -2 0
-4 -4 -4 -10z"/>
<path d="M1686 2655 c-3 -9 -5 -44 -4 -78 l1 -62 7 75 c6 81 6 90 -4 65z"/>
<path d="M1710 2654 c0 -10 22 -31 65 -64 11 -8 8 -1 -8 16 -15 17 -24 34 -20
39 5 4 2 5 -6 0 -8 -4 -17 -2 -22 6 -5 8 -9 9 -9 3z"/>
<path d="M2068 2643 c7 -3 16 -2 19 1 4 3 -2 6 -13 5 -11 0 -14 -3 -6 -6z"/>
<path d="M1300 2570 c-12 -7 -10 -9 8 -7 12 0 22 5 22 9 0 11 -12 10 -30 -2z"/>
<path d="M1800 2565 c0 -5 18 -26 40 -46 22 -20 40 -34 40 -30 0 4 -18 25 -40
46 -22 21 -40 35 -40 30z"/>
<path d="M1740 2536 c0 -5 119 -123 140 -139 8 -6 -19 24 -60 66 -72 75 -80
82 -80 73z"/>
<path d="M2500 2394 c0 -13 18 -39 24 -34 2 3 -2 14 -10 24 -8 11 -14 16 -14
10z"/>
<path d="M932 2020 c0 -14 2 -19 5 -12 2 6 2 18 0 25 -3 6 -5 1 -5 -13z"/>
<path d="M2662 2020 c0 -14 2 -19 5 -12 2 6 2 18 0 25 -3 6 -5 1 -5 -13z"/>
<path d="M2681 2014 c0 -11 3 -14 6 -6 3 7 2 16 -1 19 -3 4 -6 -2 -5 -13z"/>
<path d="M911 1584 c0 -11 3 -14 6 -6 3 7 2 16 -1 19 -3 4 -6 -2 -5 -13z"/>
<path d="M932 1580 c0 -14 2 -19 5 -12 2 6 2 18 0 25 -3 6 -5 1 -5 -13z"/>
<path d="M2662 1580 c0 -14 2 -19 5 -12 2 6 2 18 0 25 -3 6 -5 1 -5 -13z"/>
<path d="M2681 1584 c0 -11 3 -14 6 -6 3 7 2 16 -1 19 -3 4 -6 -2 -5 -13z"/>
<path d="M946 1523 c-6 -14 -5 -15 5 -6 7 7 10 15 7 18 -3 3 -9 -2 -12 -12z"/>
<path d="M2640 1459 c0 -5 5 -7 10 -4 6 3 10 8 10 11 0 2 -4 4 -10 4 -5 0 -10
-5 -10 -11z"/>
<path d="M2571 1333 c-1 -6 -4 -20 -7 -30 -5 -17 -5 -17 6 0 6 10 9 23 6 30
-3 9 -5 9 -5 0z"/>
<path d="M2499 1253 c-13 -16 -12 -17 4 -4 16 13 21 21 13 21 -2 0 -10 -8 -17
-17z"/>
<path d="M1919 1243 c-13 -16 -12 -17 4 -4 16 13 21 21 13 21 -2 0 -10 -8 -17
-17z"/>
<path d="M1082 1220 c7 -10 14 -18 15 -16 6 6 -9 36 -18 36 -5 0 -4 -9 3 -20z"/>
<path d="M2506 1224 c-9 -24 -2 -26 12 -4 7 11 8 20 3 20 -5 0 -12 -7 -15 -16z"/>
<path d="M1819 1146 c-35 -35 -67 -62 -71 -60 -5 3 -8 -2 -8 -10 0 -9 1 -16 3
-16 1 0 36 34 77 75 41 41 72 75 69 75 -3 0 -35 -29 -70 -64z"/>
<path d="M1835 1078 c-21 -20 -37 -39 -34 -42 3 -3 23 12 44 34 50 51 42 57
-10 8z"/>
<path d="M1681 1025 c0 -38 3 -76 7 -82 4 -7 6 18 4 55 -5 96 -10 108 -11 27z"/>
<path d="M2280 1030 c-8 -5 -10 -10 -5 -10 6 0 17 5 25 10 8 5 11 10 5 10 -5
0 -17 -5 -25 -10z"/>
<path d="M1745 986 c-22 -19 -36 -38 -32 -42 4 -4 7 -2 7 5 0 6 6 11 13 9 7
-2 14 2 15 7 2 6 13 20 24 33 31 33 18 27 -27 -12z"/>
<path d="M1518 953 c7 -3 16 -2 19 1 4 3 -2 6 -13 5 -11 0 -14 -3 -6 -6z"/>
<path d="M1488 938 c5 -5 16 -8 23 -6 8 3 3 7 -10 11 -17 4 -21 3 -13 -5z"/>
<path d="M1700 909 c0 -5 5 -7 10 -4 6 3 10 8 10 11 0 2 -4 4 -10 4 -5 0 -10
-5 -10 -11z"/>
<path d="M1725 890 c-3 -6 1 -7 9 -4 18 7 21 14 7 14 -6 0 -13 -4 -16 -10z"/>
</g>
</svg>
